HIERARCHY
ROOT root
{
	OFFSET	0	13.1	24.9
	CHANNELS 6  Xposition Yposition Zposition Xrotation Yrotation Zrotation
	JOINT spine_1
	{
		OFFSET	0	9.99999	0
		CHANNELS 3  Xrotation Yrotation Zrotation
		JOINT spine_2
		{
			OFFSET	0	112	-10
			CHANNELS 3  Xrotation Yrotation Zrotation
			JOINT spine_3
			{
				OFFSET	0	206.5	19.3
				CHANNELS 3  Xrotation Yrotation Zrotation
				JOINT spine_4
				{
					OFFSET	0	110.4	14.6
					CHANNELS 3  Xrotation Yrotation Zrotation
					JOINT neck_1
					{
						OFFSET	0	71.8	-50.3
						CHANNELS 3  Xrotation Yrotation Zrotation
						JOINT neck_2
						{
							OFFSET	0	86.2	-25.8
							CHANNELS 3  Xrotation Yrotation Zrotation
							JOINT head_ee
							{
								OFFSET	0	179.8	-8.7
								CHANNELS 3  Xrotation Yrotation Zrotation
								End Site
								{
									OFFSET	1	0	0
								}
							}
						}
					}
					JOINT left_clavicle
					{
						OFFSET	-43.2	22.4	-70.8
						CHANNELS 3  Xrotation Yrotation Zrotation
						JOINT left_shoulder
						{
							OFFSET	-93.9	-5.79999	48.7
							CHANNELS 3  Xrotation Yrotation Zrotation
							JOINT left_elbow
							{
								OFFSET	-291.4	-30.8	15.2
								CHANNELS 3  Xrotation Yrotation Zrotation
								JOINT left_lowarm_twist
								{
									OFFSET	-110.7	-3.89999	13.6
									CHANNELS 3  Xrotation Yrotation Zrotation
									JOINT left_hand
									{
										OFFSET	-110.7	-3.89999	13.6
										CHANNELS 3  Xrotation Yrotation Zrotation
										JOINT left_ee
										{
											OFFSET	-80.8	-5.10001	12.1
											CHANNELS 3  Xrotation Yrotation Zrotation
											End Site
											{
												OFFSET	1	0	0
											}
										}
									}
								}
							}
						}
					}
					JOINT right_clavicle
					{
						OFFSET	43.2	22.4	-70.8
						CHANNELS 3  Xrotation Yrotation Zrotation
						JOINT right_shoulder
						{
							OFFSET	93.9	-5.79999	48.7
							CHANNELS 3  Xrotation Yrotation Zrotation
							JOINT right_elbow
							{
								OFFSET	291.4	-30.8	15.2
								CHANNELS 3  Xrotation Yrotation Zrotation
								JOINT right_lowarm_twist
								{
									OFFSET	110.7	-3.89999	13.6
									CHANNELS 3  Xrotation Yrotation Zrotation
									JOINT right_hand
									{
										OFFSET	110.7	-3.89999	13.6
										CHANNELS 3  Xrotation Yrotation Zrotation
										JOINT right_ee
										{
											OFFSET	80.8	-5.10001	12.1
											CHANNELS 3  Xrotation Yrotation Zrotation
											End Site
											{
												OFFSET	1	0	0
											}
										}
									}
								}
							}
						}
					}
				}
			}
		}
	}
	JOINT left_hip
	{
		OFFSET	-82.8	-127.5	0.300001
		CHANNELS 3  Xrotation Yrotation Zrotation
		JOINT left_knee
		{
			OFFSET	-28.2	-396.7	2.2
			CHANNELS 3  Xrotation Yrotation Zrotation
			JOINT left_ankle
			{
				OFFSET	-11.7	-411.3	35.4
				CHANNELS 3  Xrotation Yrotation Zrotation
				JOINT left_toes
				{
					OFFSET	0	-60	-88.6
					CHANNELS 3  Xrotation Yrotation Zrotation
					JOINT left_foot_ee
					{
						OFFSET	-22.5	-16.5	-42.2
						CHANNELS 3  Xrotation Yrotation Zrotation
						End Site
						{
							OFFSET	1	0	0
						}
					}
				}
			}
		}
	}
	JOINT right_hip
	{
		OFFSET	82.8	-127.5	0.300001
		CHANNELS 3  Xrotation Yrotation Zrotation
		JOINT right_knee
		{
			OFFSET	28.2	-396.7	2.2
			CHANNELS 3  Xrotation Yrotation Zrotation
			JOINT right_ankle
			{
				OFFSET	11.7	-411.3	35.4
				CHANNELS 3  Xrotation Yrotation Zrotation
				JOINT right_toes
				{
					OFFSET	0	-60	-88.6
					CHANNELS 3  Xrotation Yrotation Zrotation
					JOINT right_foot_ee
					{
						OFFSET	22.5	-16.5	-42.2
						CHANNELS 3  Xrotation Yrotation Zrotation
						End Site
						{
							OFFSET	1	0	0
						}
					}
				}
			}
		}
	}
}
MOTION
Frames: 8
Frame Time: 0.02
3478.13 644.882 -1565.73 -14.5792 78.8236 14.7397 3.53004 0.352176 -0.073213 3.52997 0.356121 -0.0506545 3.52968 0.359692 0.00318721 3.52986 0.355681 -0.0536601 -18.3701 3.8392 -1.32044 -18.4477 8.09609 0.266785 -0.0 0.0 -0.0 5.52855 18.2488 10.5866 -11.6066 -23.344 64.6512 1.36947 -34.151 0.420682 16.5584 0.283345 -2.08887 0.352744 25.3383 12.0734 -0.0 0.0 -0.0 6.43253 -20.2036 -11.8748 -24.3808 26.0602 -58.8334 0.964689 25.5417 -0.218661 11.4597 -0.260692 1.43824 6.33131 -33.0155 -54.6244 0.0 0.0 0.0 -1.70536 19.619 -1.48751 -27.6036 0.128368 4.19336 40.213 -5.3551 -4.95526 9.77215 -0.0 -0.0 -0.0 0.0 -0.0 17.9949 1.61795 4.2636 -50.4028 1.25743 -7.38753 42.5805 -19.452 5.24665 -6.13619 0.0 0.0 0.0 0.0 0.0 
3471.93 647.823 -1567.16 -8.23073 78.5817 8.31013 3.26428 0.397322 -0.0493594 3.26419 0.399657 -0.0239763 3.26405 0.398576 0.0379253 3.26427 0.399563 -0.0254992 -20.2367 5.09736 -1.21906 -20.3942 10.4415 1.0322 -0.0 0.0 -0.0 5.94118 17.5301 11.2629 -11.0297 -24.8237 64.1081 1.45585 -35.7964 0.470199 16.3039 0.283588 -2.05636 0.273899 23.2517 10.8907 -0.0 0.0 -0.0 6.76227 -19.9183 -12.3978 -25.1583 25.6884 -59.3658 0.876994 23.4817 -0.182272 9.28874 -0.233494 1.16228 6.13738 -32.6781 -52.7292 0.0 0.0 0.0 -4.52626 20.2966 -1.22091 -25.7462 0.183355 3.91361 39.9996 -5.53778 -4.93983 11.0519 -0.0 -0.0 -0.0 0.0 -0.0 19.6285 3.97478 2.56359 -55.0235 1.68725 -7.95483 41.1492 -25.7619 5.30307 1.46329 -0.0 -0.0 0.0 0.0 0.0 
3463.42 643.47 -1566.67 -1.60493 77.2607 1.58757 3.02653 0.237984 -0.00954243 3.0265 0.238109 0.00562052 3.02653 0.234218 0.0432336 3.02661 0.238107 0.00570038 -21.5061 5.99918 -1.842 -21.7522 12.4593 0.985308 -0.0 0.0 -0.0 5.75628 16.42 11.0125 -10.2623 -26.0607 63.4278 1.48106 -36.2643 0.485031 17.3669 0.281616 -2.19211 0.541445 23.0524 12.3994 -0.0 0.0 -0.0 6.75414 -19.2344 -12.4361 -25.4474 24.4409 -58.9297 0.946441 25.1186 -0.210853 9.94339 -0.242796 1.24538 6.14217 -32.7677 -52.7599 0.0 0.0 0.0 -6.10207 19.0721 -0.786943 -25.4422 0.191487 3.86768 39.7715 -6.22301 -4.93138 12.2933 -0.0 -0.0 -0.0 0.0 -0.0 21.112 8.80785 1.61252 -59.0478 2.09805 -8.41971 37.2798 -28.5152 5.01747 4.53704 -0.0 -0.0 0.0 0.0 0.0 
3462.6 649.076 -1570.05 -2.3892 77.6987 2.23779 2.96403 0.226127 0.15546 2.96402 0.215777 0.169534 2.96467 0.18601 0.201747 2.96468 0.215537 0.169838 -22.2906 7.43247 -2.0879 -22.6906 15.313 1.53141 -0.0 0.0 -0.0 5.75401 16.1709 11.0177 -9.90458 -28.7635 61.8671 1.64196 -39.1211 0.583438 16.7234 0.28311 -2.10994 0.805601 20.017 12.9593 -0.0 0.0 -0.0 7.00507 -20.4716 -12.7238 -23.9674 21.9394 -59.928 0.845323 22.7212 -0.169845 8.14563 -0.214976 1.01744 5.65473 -30.8646 -48.4459 0.0 0.0 0.0 -7.78649 18.0394 0.1619 -17.571 0.316644 2.66729 39.2402 -8.53553 -4.92838 11.0976 -0.0 -0.0 -0.0 0.0 -0.0 22.3759 9.61517 -0.416131 -54.7928 1.66471 -7.92732 38.5875 -25.4296 5.04382 4.26798 -0.0 -0.0 0.0 0.0 0.0 
3457.87 651.185 -1569.49 -2.55347 75.8364 2.30777 2.92202 0.310619 0.262968 2.92201 0.293257 0.282201 2.92347 0.244318 0.325493 2.92344 0.292657 0.282823 -23.6039 7.82419 -3.22606 -24.1023 16.5213 0.857072 -0.0 0.0 -0.0 5.82777 15.7548 11.1518 -9.57822 -29.6766 60.5539 1.82804 -42.1586 0.704675 16.3936 0.283519 -2.06782 0.866381 18.4478 12.7969 -0.0 0.0 -0.0 7.29446 -20.5956 -13.1529 -25.2051 20.8436 -59.2071 0.848138 22.7892 -0.170934 7.32237 -0.19985 0.913363 5.5709 -29.5209 -47.7784 0.0 0.0 0.0 -8.78854 17.6631 1.17429 -15.1038 0.321816 2.28881 38.6887 -8.36285 -4.87592 10.4002 -0.0 -0.0 -0.0 0.0 -0.0 23.3288 11.3549 -2.03775 -50.8999 1.30144 -7.45017 38.0017 -22.4866 4.89983 4.7176 -0.0 -0.0 0.0 0.0 0.0 
3443.87 647.765 -1570.17 -2.4552 75.7624 2.07092 2.66619 0.432561 0.219824 2.66612 0.417697 0.246904 2.66795 0.371415 0.312223 2.66806 0.416064 0.249646 -21.0577 9.12921 -3.06984 -21.6291 19.0995 1.25479 -0.0 0.0 -0.0 6.12669 15.5552 11.6473 -9.10837 -30.5642 59.567 1.99167 -44.6089 0.817092 15.3384 0.283196 -1.93305 0.911453 16.2658 12.319 -0.0 0.0 -0.0 7.41687 -21.5544 -13.2444 -25.0883 19.4476 -58.5309 0.738961 20.1056 -0.131003 6.6344 -0.186064 0.826562 5.41001 -28.7444 -46.3867 0.0 0.0 0.0 -11.6366 17.7339 2.73607 -15.0645 0.321767 2.28278 39.6634 -6.45763 -4.92602 10.1311 -0.0 -0.0 -0.0 0.0 -0.0 24.9412 12.4601 -3.76794 -47.5352 1.01435 -7.019 38.0516 -20.5016 4.85574 5.45533 -0.0 -0.0 0.0 0.0 0.0 
3429.75 646.242 -1570.28 -0.209007 74.7898 -0.300824 2.60487 0.492915 0.214679 2.60477 0.478256 0.24561 2.60687 0.431021 0.321362 2.60704 0.476365 0.249257 -20.6588 10.6169 -3.44931 -21.4199 22.1664 1.54724 -0.0 0.0 -0.0 6.19175 17.8647 11.6425 -7.03623 -31.9457 59.6296 2.19222 -47.3536 0.961353 13.0832 0.274188 -1.64515 0.935902 13.6082 11.5251 -0.0 0.0 -0.0 8.0456 -20.8491 -14.2729 -28.3685 16.2377 -56.4802 0.582344 16.0917 -0.0823192 7.37443 -0.200851 0.919938 5.2132 -24.5713 -44.5196 0.0 0.0 0.0 -14.0011 18.2582 4.05305 -17.3179 0.317925 2.62848 39.3511 -6.87273 -4.90608 12.4756 -0.0 -0.0 -0.0 0.0 -0.0 27.0558 14.1871 -5.37647 -40.2086 0.480089 -6.02745 36.3057 -18.6199 4.64532 3.69324 -0.0 -0.0 0.0 0.0 0.0 
3425.19 652.481 -1573.74 -1.34185 73.8118 1.29067 2.54149 0.520895 0.153225 2.54135 0.51009 0.186061 2.54306 0.471971 0.268429 2.54332 0.508441 0.19052 -20.0144 11.5071 -4.15879 -20.8829 24.265 1.18798 -0.0 0.0 -0.0 6.19383 18.2637 11.6245 -7.14085 -33.4808 58.3364 2.40866 -50.0262 1.12398 11.8651 0.264611 -1.48987 1.01214 12.9657 11.7821 -0.0 0.0 -0.0 9.19143 -20.683 -16.0677 -30.7797 14.8366 -54.7512 0.541194 15.0078 -0.0712874 6.52493 -0.183774 0.812766 5.0497 -22.5789 -42.9073 0.0 0.0 0.0 -14.4511 18.3222 3.78233 -15.9325 0.321897 2.41596 37.1885 -8.50205 -4.74208 13.5761 -0.0 -0.0 -0.0 0.0 -0.0 28.6188 15.0123 -5.92457 -34.7111 0.165013 -5.24389 33.6226 -15.798 4.32893 0.903171 -0.0 -0.0 0.0 0.0 0.0 
